<svg xmlns="http://www.w3.org/2000/svg" width="40.377" height="43.412" viewBox="0 0 40.377 43.412">
  <g id="noun_Call_Center_1236554" data-name="noun_Call Center_1236554" transform="translate(-7.49 -4.288)">
    <path id="패스_58" data-name="패스 58" d="M39.551,8.649l-.342-.285a17.215,17.215,0,0,0-6.6-3.134l-.142-.038a21.28,21.28,0,0,0-6.34-.9H25.5a18.013,18.013,0,0,0-5.552.869A16.717,16.717,0,0,0,9.94,13.174,18.046,18.046,0,0,0,7.49,22.307c0,.161,0,.323,0,.475,0,.684.043,1.358.1,2.009A19.533,19.533,0,0,0,11.27,34.8a11.928,11.928,0,0,1,2.422,5.86c0,.185.028.375.033.579V47.7H34.36V43.222l1.567.3A5.97,5.97,0,0,0,43.1,38.107l.575-6.174,2.479-1.026a2.726,2.726,0,0,0,1.572-1.662,2.883,2.883,0,0,0-.285-2.408L43.7,20.55a18.941,18.941,0,0,0-4.165-10.78V9.095Zm-8.24,17.4a6.226,6.226,0,1,1-6.226-6.226,6.226,6.226,0,0,1,6.226,6.226ZM41.83,20.92v.218l3.961,6.649a.978.978,0,0,1,.114.826.817.817,0,0,1-.475.5l-3.557,1.472L41.2,37.95a4.089,4.089,0,0,1-1.605,2.973,4.022,4.022,0,0,1-3.3.746l-3.837-.741V45.8H15.635V41.194a4.073,4.073,0,0,0-.038-.679,13.663,13.663,0,0,0-2.726-6.744A17.59,17.59,0,0,1,9.494,24.62q-.076-.907-.09-1.9V22.3a16.19,16.19,0,0,1,2.189-8.173,14.879,14.879,0,0,1,8.928-7.152A16.047,16.047,0,0,1,24.14,6.25V17.985A8.121,8.121,0,1,0,27.5,33.809a9.831,9.831,0,0,0,7.38,4.972,2.607,2.607,0,1,0,.062-1.9,7.988,7.988,0,0,1-5.7-3.847A8.111,8.111,0,0,0,26.04,18V6.193h.09A19.4,19.4,0,0,1,31.9,7l.2.066h0a16.028,16.028,0,0,1,5.542,2.474,2.491,2.491,0,0,1-.038.437l-.052.427.29.318A17.263,17.263,0,0,1,41.83,20.92Z" transform="translate(0 0)" fill="#fff"/>
    <path id="패스_59" data-name="패스 59" d="M40.208,49.7a3.918,3.918,0,1,0-3.918-3.918A3.918,3.918,0,0,0,40.208,49.7Zm0-5.932a2.018,2.018,0,1,1-2.018,2.018A2.018,2.018,0,0,1,40.208,43.764Z" transform="translate(-15.123 -19.729)" fill="#fff"/>
  </g>
</svg>
