<svg id="noun_production_line_2081943" data-name="noun_production line_2081943" xmlns="http://www.w3.org/2000/svg" width="137.787" height="119.946" viewBox="0 0 137.787 119.946">
  <g id="그룹_10" data-name="그룹 10" transform="translate(0 0)">
    <path id="패스_5" data-name="패스 5" d="M8.509,19.717h1.72L12.808,31.97a2.093,2.093,0,0,0,2.15,1.72h4.729v6.879a2.031,2.031,0,0,0,2.15,2.15,2.031,2.031,0,0,0,2.15-2.15V33.689h4.729a2.093,2.093,0,0,0,2.15-1.72l2.579-12.253H56.229L58.808,31.97a2.093,2.093,0,0,0,2.15,1.72h4.729v6.879a2.15,2.15,0,0,0,4.3,0V33.689h4.729a2.093,2.093,0,0,0,2.15-1.72l2.579-12.253H102.23l2.579,12.253a2.093,2.093,0,0,0,2.15,1.72h4.729v6.879a2.15,2.15,0,1,0,4.3,0V33.689h4.729a2.093,2.093,0,0,0,2.15-1.72l2.579-12.253h1.72a7.309,7.309,0,0,0,0-14.617H8.509a7.309,7.309,0,1,0,0,14.617ZM26.78,29.39h-10.1l-2.15-9.673h14.4Zm46,0H62.463l-2.15-9.673h14.4Zm46,0H108.463l-2.15-9.673h14.4ZM8.509,9.4H126.95a2.939,2.939,0,0,1,3.009,3.009,2.939,2.939,0,0,1-3.009,3.009H8.509A2.939,2.939,0,0,1,5.5,12.409,2.939,2.939,0,0,1,8.509,9.4Z" transform="translate(-0.77 -5.1)" fill="#fff"/>
    <path id="패스_6" data-name="패스 6" d="M125.03,67.122a5.724,5.724,0,0,0,.645-2.579V47.131c0-4.084-1.5-6.234-2.579-8.168-2.579-4.3-1.935-5.8-1.935-6.664h.86a2.15,2.15,0,1,0,0-4.3H105.9a2.15,2.15,0,1,0,0,4.3h.86c-.215.86.645,2.365-1.935,6.664a13.626,13.626,0,0,0-2.579,8.168V64.543a5.724,5.724,0,0,0,.645,2.579H79.244a5.106,5.106,0,0,0,.645-2.579V47.131c0-4.084-1.5-6.234-2.579-8.168-2.579-4.3-1.935-5.8-1.935-6.664h.86a2.15,2.15,0,1,0,0-4.3H60.113a2.15,2.15,0,1,0,0,4.3h.86c-.215.86.645,2.365-1.935,6.664a13.626,13.626,0,0,0-2.579,8.168V64.543a5.724,5.724,0,0,0,.645,2.579H37.328a5.106,5.106,0,0,0,.645-2.579V47.131c0-4.084-1.5-6.234-2.579-8.168-2.579-4.3-1.935-5.8-1.935-6.664h.86a2.15,2.15,0,1,0,0-4.3H17.552a2.15,2.15,0,1,0,0,4.3h.86c-.215.43.645,2.15-1.935,6.449A13.626,13.626,0,0,0,13.9,46.916V64.328a5.95,5.95,0,0,0,.645,2.794,15.886,15.886,0,0,0,2.365,31.6H122.88a15.87,15.87,0,0,0,2.15-31.6Zm-64.7-20.206c0-2.794.86-4.084,1.935-6.019,3.439-5.374,2.579-8.383,2.579-9.028h5.8c.215.86-.86,3.439,2.579,9.028a10.043,10.043,0,0,1,1.935,6.019V64.328a1.7,1.7,0,0,1-1.72,1.72H61.833a1.7,1.7,0,0,1-1.72-1.72V46.916Zm46,0c0-2.794.86-4.084,1.935-6.019,3.439-5.374,2.579-8.383,2.579-9.028h5.8c.215.86-.86,3.439,2.579,9.028a10.043,10.043,0,0,1,1.935,6.019V64.328a1.7,1.7,0,0,1-1.72,1.72H107.833a1.7,1.7,0,0,1-1.72-1.72V46.916Zm-88.347,0c0-2.794.86-4.084,1.935-6.019,3.439-5.374,2.579-8.383,2.579-9.028h5.8c.215.86-.86,3.439,2.579,9.028a10.043,10.043,0,0,1,1.935,6.019V64.328a1.7,1.7,0,0,1-1.72,1.72H19.7a1.7,1.7,0,0,1-1.72-1.72ZM122.666,94.422H16.907a11.716,11.716,0,0,1,0-23.43H122.88a11.608,11.608,0,0,1,11.608,11.823A11.884,11.884,0,0,1,122.666,94.422Z" transform="translate(-1 21.225)" fill="#fff"/>
    <path id="패스_7" data-name="패스 7" d="M15.083,49.6A8.394,8.394,0,0,0,6.7,57.983a8.26,8.26,0,0,0,8.383,8.383,8.383,8.383,0,1,0,0-16.767Zm0,12.253A4.081,4.081,0,0,1,11,57.768a3.953,3.953,0,0,1,4.084-4.084,4.081,4.081,0,0,1,4.084,4.084A3.953,3.953,0,0,1,15.083,61.853Z" transform="translate(5.553 46.056)" fill="#fff"/>
    <path id="패스_8" data-name="패스 8" d="M29.983,49.6A8.394,8.394,0,0,0,21.6,57.983,8.383,8.383,0,1,0,29.983,49.6Zm0,12.253A4.081,4.081,0,0,1,25.9,57.768a3.953,3.953,0,0,1,4.084-4.084,4.081,4.081,0,0,1,4.084,4.084A3.953,3.953,0,0,1,29.983,61.853Z" transform="translate(22.681 46.056)" fill="#fff"/>
    <path id="패스_9" data-name="패스 9" d="M44.983,49.6A8.394,8.394,0,0,0,36.6,57.983a8.383,8.383,0,0,0,16.767,0A8.394,8.394,0,0,0,44.983,49.6Zm0,12.253A4.081,4.081,0,0,1,40.9,57.768a4.084,4.084,0,0,1,8.168,0A4.081,4.081,0,0,1,44.983,61.853Z" transform="translate(39.925 46.056)" fill="#fff"/>
    <path id="패스_10" data-name="패스 10" d="M59.883,49.6A8.394,8.394,0,0,0,51.5,57.983a8.383,8.383,0,0,0,16.767,0A8.394,8.394,0,0,0,59.883,49.6Zm0,12.253A4.081,4.081,0,0,1,55.8,57.768a3.953,3.953,0,0,1,4.084-4.084,4.084,4.084,0,1,1,0,8.168Z" transform="translate(57.053 46.056)" fill="#fff"/>
    <path id="패스_11" data-name="패스 11" d="M24,49.6H17.55a2.15,2.15,0,0,0,0,4.3H24a2.15,2.15,0,0,0,0-4.3Z" transform="translate(15.554 46.056)" fill="#fff"/>
    <path id="패스_12" data-name="패스 12" d="M39,49.6H32.55a2.15,2.15,0,1,0,0,4.3H39a2.031,2.031,0,0,0,2.15-2.15A2.154,2.154,0,0,0,39,49.6Z" transform="translate(32.797 46.056)" fill="#fff"/>
    <path id="패스_13" data-name="패스 13" d="M54,49.6H47.55a2.15,2.15,0,0,0,0,4.3H54a2.031,2.031,0,0,0,2.15-2.15A2.154,2.154,0,0,0,54,49.6Z" transform="translate(50.041 46.056)" fill="#fff"/>
    <path id="패스_14" data-name="패스 14" d="M24,55.5H17.55a2.15,2.15,0,1,0,0,4.3H24a2.15,2.15,0,1,0,0-4.3Z" transform="translate(15.554 52.838)" fill="#fff"/>
    <path id="패스_15" data-name="패스 15" d="M39,55.5H32.55a2.15,2.15,0,1,0,0,4.3H39a2.031,2.031,0,0,0,2.15-2.15A2.154,2.154,0,0,0,39,55.5Z" transform="translate(32.797 52.838)" fill="#fff"/>
    <path id="패스_16" data-name="패스 16" d="M54,55.5H47.55a2.15,2.15,0,1,0,0,4.3H54a2.031,2.031,0,0,0,2.15-2.15A2.154,2.154,0,0,0,54,55.5Z" transform="translate(50.041 52.838)" fill="#fff"/>
  </g>
</svg>
