<svg xmlns="http://www.w3.org/2000/svg" xmlns:xlink="http://www.w3.org/1999/xlink" width="555.028" height="142.28" viewBox="0 0 555.028 142.28">
  <defs>
    <linearGradient id="linear-gradient" y1="0.5" x2="1.39" y2="0.5" gradientUnits="objectBoundingBox">
      <stop offset="0" stop-color="#33a495"/>
      <stop offset="0.188" stop-color="#2d9e99"/>
      <stop offset="0.42" stop-color="#1e8fa6"/>
      <stop offset="0.508" stop-color="#1788ad"/>
      <stop offset="1" stop-color="#181d3e"/>
    </linearGradient>
    <filter id="패스_1" x="265.374" y="51.033" width="247.87" height="90.717" filterUnits="userSpaceOnUse">
      <feOffset dy="3" input="SourceAlpha"/>
      <feGaussianBlur stdDeviation="3" result="blur"/>
      <feFlood flood-opacity="0.161"/>
      <feComposite operator="in" in2="blur"/>
      <feComposite in="SourceGraphic"/>
    </filter>
    <linearGradient id="linear-gradient-2" x1="0" y1="1" x2="1.496" y2="1" xlink:href="#linear-gradient"/>
    <filter id="합치기_1" x="0" y="0" width="555.028" height="142.28" filterUnits="userSpaceOnUse">
      <feOffset dy="3" input="SourceAlpha"/>
      <feGaussianBlur stdDeviation="3" result="blur-2"/>
      <feFlood flood-opacity="0.161"/>
      <feComposite operator="in" in2="blur-2"/>
      <feComposite in="SourceGraphic"/>
    </filter>
  </defs>
  <g id="그룹_51" data-name="그룹 51" transform="translate(-638.504 -254.888)">
    <g transform="matrix(1, 0, 0, 1, 638.5, 254.89)" filter="url(#패스_1)">
      <path id="패스_1-2" data-name="패스 1" d="M964.094,508.552l54.834-67.171c1.868-2.288,5.319-3.7,9.054-3.7h164c1.342,0,2.18,1.027,1.51,1.848L1179.91,456.17c-1.868,2.288-5.32,3.7-9.055,3.7H1046.094c-3.735,0-7.187,1.409-9.055,3.7L1001.824,506.7c-1.868,2.288-5.32,3.7-9.055,3.7H965.6C964.261,510.4,963.424,509.373,964.094,508.552Z" transform="translate(-689.48 -380.65)" fill="url(#linear-gradient)"/>
    </g>
    <g transform="matrix(1, 0, 0, 1, 638.5, 254.89)" filter="url(#합치기_1)">
      <path id="합치기_1-2" data-name="합치기 1" d="M76.714,123.25H2.5c-.887,0-1.644.061-2.2-.6A.834.834,0,0,1,.275,121.4l8.034-9.842,4.017-4.92c.59-.723,1.143-1.462,1.781-2.166a8.813,8.813,0,0,1,2.111-1.694,12.311,12.311,0,0,1,5.941-1.7c.328-.016.654-.019.981-.019H71.346c1.429,0,2.856.033,4.285-.005a12.533,12.533,0,0,0,6-1.544,9.948,9.948,0,0,0,3.023-2.6l6.6-8.087,13.2-16.173,26.406-32.346Q143.455,24.887,156.042,9.47q1.572-1.929,3.146-3.855A29.938,29.938,0,0,1,161.3,3.1a9.62,9.62,0,0,1,3.016-2,10.531,10.531,0,0,1,3.9-1.017C170.442,0,172.056,0,173.982,0H534.255c1.341,0,2.18,1.027,1.509,1.849L522.181,18.487c-1.867,2.288-5.32,3.7-9.056,3.7H287.752c-3.737,0-7.187,1.408-9.056,3.7q-38.232,46.836-76.466,93.671c-1.868,2.288-5.32,3.7-9.056,3.7H93.362q-2.776.033-5.55.03C84.113,123.28,80.413,123.25,76.714,123.25Zm98.351-22.185c3.735,0,7.187-1.409,9.054-3.7q30.689-37.593,61.376-75.182h-50.3c-2.588,0-5.175-.08-7.766.008a14.127,14.127,0,0,0-2.352.272,11.673,11.673,0,0,0-4.253,1.686,8.907,8.907,0,0,0-1.559,1.285c-.953,1-1.715,2.064-2.562,3.1l-6.02,7.375-24.084,29.5q-14.551,17.824-29.09,35.651Z" transform="translate(9.5 6.5)" stroke="rgba(0,0,0,0)" stroke-miterlimit="10" stroke-width="1" fill="url(#linear-gradient-2)"/>
    </g>
  </g>
</svg>
