<svg xmlns="http://www.w3.org/2000/svg" width="137.572" height="144.763" viewBox="0 0 137.572 144.763">
  <g id="그룹_14" data-name="그룹 14" transform="translate(0 2)">
    <g id="noun_Factory_2081902" transform="translate(0 32.92)">
      <g id="그룹_11" data-name="그룹 11" transform="translate(0 0)">
        <path id="패스_21" data-name="패스 21" d="M136.423,118.544h-4.514V24.608a2.031,2.031,0,0,0-2.15-2.15H87.2a2.031,2.031,0,0,0-2.15,2.15V46.318h-5.8L75.375,14.935A2.286,2.286,0,0,0,73.225,13h-14.4a2.286,2.286,0,0,0-2.15,1.935L52.8,46.318H47.216a2.031,2.031,0,0,0-2.15,2.15v21.5H39.047L34.963,41.374a2.286,2.286,0,0,0-2.15-1.935H18.841a2.286,2.286,0,0,0-2.15,1.935L12.608,69.964H9.813a2.031,2.031,0,0,0-2.15,2.15v46.431H3.15a2.15,2.15,0,0,0,0,4.3H136.423a2.15,2.15,0,0,0,0-4.3ZM60.543,17.3H71.076L74.73,46.318H56.889ZM20.776,43.739H31.094l3.654,26.01H17.122ZM11.963,74.263H47.216a2.031,2.031,0,0,0,2.15-2.15v-21.5H87.2a2.031,2.031,0,0,0,2.15-2.15V26.757H127.61v92h-7.094V85.87a2.031,2.031,0,0,0-2.15-2.15H81.609a2.031,2.031,0,0,0-2.15,2.15v32.888h-67.5Zm71.8,44.281V88.02h32.458v30.739H83.758Z" transform="translate(-1 -13)" fill="#fff"/>
        <path id="패스_22" data-name="패스 22" d="M11.15,43.4A2.031,2.031,0,0,0,9,45.55V53.5a2.031,2.031,0,0,0,2.15,2.15A2.031,2.031,0,0,0,13.3,53.5V45.55A2.154,2.154,0,0,0,11.15,43.4Z" transform="translate(8.197 21.947)" fill="#fff"/>
        <path id="패스_23" data-name="패스 23" d="M14.65,43.4a2.031,2.031,0,0,0-2.15,2.15V53.5a2.031,2.031,0,0,0,2.15,2.15A2.031,2.031,0,0,0,16.8,53.5V45.55A2.312,2.312,0,0,0,14.65,43.4Z" transform="translate(12.22 21.947)" fill="#fff"/>
        <path id="패스_24" data-name="패스 24" d="M18.05,43.4a2.031,2.031,0,0,0-2.15,2.15V53.5a2.031,2.031,0,0,0,2.15,2.15A2.031,2.031,0,0,0,20.2,53.5V45.55A2.312,2.312,0,0,0,18.05,43.4Z" transform="translate(16.129 21.947)" fill="#fff"/>
        <path id="패스_25" data-name="패스 25" d="M29.85,33.3a2.031,2.031,0,0,0-2.15,2.15V43.4a2.15,2.15,0,1,0,4.3,0V35.45A2.031,2.031,0,0,0,29.85,33.3Z" transform="translate(29.693 10.336)" fill="#fff"/>
        <path id="패스_26" data-name="패스 26" d="M33.25,33.3a2.031,2.031,0,0,0-2.15,2.15V43.4a2.15,2.15,0,1,0,4.3,0V35.45A2.031,2.031,0,0,0,33.25,33.3Z" transform="translate(33.602 10.336)" fill="#fff"/>
        <path id="패스_27" data-name="패스 27" d="M36.75,33.3a2.031,2.031,0,0,0-2.15,2.15V43.4a2.15,2.15,0,1,0,4.3,0V35.45A2.154,2.154,0,0,0,36.75,33.3Z" transform="translate(37.625 10.336)" fill="#fff"/>
        <path id="패스_28" data-name="패스 28" d="M49.05,33.853A2.031,2.031,0,0,0,51.2,31.7V23.75a2.15,2.15,0,0,0-4.3,0V31.7A2.031,2.031,0,0,0,49.05,33.853Z" transform="translate(51.765 -3.114)" fill="#fff"/>
        <path id="패스_29" data-name="패스 29" d="M52.45,33.853A2.031,2.031,0,0,0,54.6,31.7V23.75a2.15,2.15,0,0,0-4.3,0V31.7A2.031,2.031,0,0,0,52.45,33.853Z" transform="translate(55.674 -3.114)" fill="#fff"/>
        <path id="패스_30" data-name="패스 30" d="M55.85,33.853A2.031,2.031,0,0,0,58,31.7V23.75a2.15,2.15,0,0,0-4.3,0V31.7A2.154,2.154,0,0,0,55.85,33.853Z" transform="translate(59.582 -3.114)" fill="#fff"/>
      </g>
    </g>
    <g id="그룹_13" data-name="그룹 13" transform="translate(4.841 27.944)">
      <path id="패스_31" data-name="패스 31" d="M-232.472,6256.319s-10.025-3.971-6.54-9.508,17.667-7.7,4.02-16.026" transform="translate(252.645 -6230.785)" fill="none" stroke="#fff" stroke-linecap="round" stroke-width="4"/>
      <path id="패스_35" data-name="패스 35" d="M-232.472,6256.319s-10.025-3.971-6.54-9.508,17.667-7.7,4.02-16.026" transform="translate(239.748 -6230.785)" fill="none" stroke="#fff" stroke-linecap="round" stroke-width="4"/>
      <path id="패스_32" data-name="패스 32" d="M-232.472,6256.319s-10.025-3.971-6.54-9.508,17.667-7.7,4.02-16.026" transform="translate(265.543 -6230.785)" fill="none" stroke="#fff" stroke-linecap="round" stroke-width="4"/>
    </g>
    <g id="그룹_12" data-name="그룹 12" transform="translate(45.683 0)">
      <path id="패스_34" data-name="패스 34" d="M-232.472,6256.319s-10.025-3.971-6.54-9.508,17.667-7.7,4.02-16.026" transform="translate(252.645 -6230.785)" fill="none" stroke="#fff" stroke-linecap="round" stroke-width="4"/>
      <path id="패스_36" data-name="패스 36" d="M-232.472,6256.319s-10.025-3.971-6.54-9.508,17.667-7.7,4.02-16.026" transform="translate(239.748 -6230.785)" fill="none" stroke="#fff" stroke-linecap="round" stroke-width="4"/>
      <path id="패스_33" data-name="패스 33" d="M-232.472,6256.319s-10.025-3.971-6.54-9.508,17.667-7.7,4.02-16.026" transform="translate(265.543 -6230.785)" fill="none" stroke="#fff" stroke-linecap="round" stroke-width="4"/>
    </g>
  </g>
</svg>
