<svg xmlns="http://www.w3.org/2000/svg" width="132.787" height="118.319" viewBox="0 0 132.787 118.319">
  <g id="noun_spray-gun_1972776" transform="translate(0.007 -7)">
    <path id="패스_46" data-name="패스 46" d="M109.075,51.174a2.075,2.075,0,0,0,1.369-.519l.778-.685a2.076,2.076,0,0,0-2.749-3.112l-.778.685a2.075,2.075,0,0,0,1.38,3.631Z" transform="translate(3.996 1.469)" fill="#fff"/>
    <path id="패스_47" data-name="패스 47" d="M114.325,46.526a2.075,2.075,0,0,0,1.369-.519l.851-.747a2.076,2.076,0,0,0-2.749-3.112l-.851.747a2.075,2.075,0,0,0,1.369,3.631Z" transform="translate(4.192 1.293)" fill="#fff"/>
    <path id="패스_48" data-name="패스 48" d="M119.645,41.834a2.075,2.075,0,0,0,1.369-.519l.778-.685a2.076,2.076,0,1,0-2.749-3.112l-.778.685a2.075,2.075,0,0,0,1.369,3.631Z" transform="translate(4.39 1.12)" fill="#fff"/>
    <path id="패스_49" data-name="패스 49" d="M108.483,64.305a2.076,2.076,0,0,0,2.749-3.112l-.778-.685a2.076,2.076,0,1,0-2.749,3.112Z" transform="translate(3.996 1.979)" fill="#fff"/>
    <path id="패스_50" data-name="패스 50" d="M116.732,68.811a2.075,2.075,0,0,0-.187-2.925l-.851-.747a2.076,2.076,0,0,0-2.749,3.112L113.8,69a2.075,2.075,0,0,0,2.925-.187Z" transform="translate(4.192 2.152)" fill="#fff"/>
    <path id="패스_51" data-name="패스 51" d="M121.014,69.829a2.076,2.076,0,1,0-2.749,3.112l.778.685a2.076,2.076,0,0,0,2.749-3.112Z" transform="translate(4.39 2.327)" fill="#fff"/>
    <path id="패스_52" data-name="패스 52" d="M116.149,53.87h-2.075a2.075,2.075,0,0,0,0,4.149h2.075a2.075,2.075,0,1,0,0-4.149Z" transform="translate(4.182 1.75)" fill="#fff"/>
    <path id="패스_53" data-name="패스 53" d="M126.149,53.87h-2.075a2.075,2.075,0,0,0,0,4.149h2.075a2.075,2.075,0,0,0,0-4.149Z" transform="translate(4.556 1.75)" fill="#fff"/>
    <circle id="타원_1" data-name="타원 1" cx="2.075" cy="2.075" r="2.075" transform="translate(39.419 50.548)" fill="#fff"/>
    <circle id="타원_2" data-name="타원 2" cx="2.075" cy="2.075" r="2.075" transform="translate(120.332 102.394)" fill="#fff"/>
    <path id="패스_54" data-name="패스 54" d="M10.075,51A2.075,2.075,0,0,0,8,53.075v4.149a2.075,2.075,0,1,0,4.149,0V53.075A2.075,2.075,0,0,0,10.075,51Z" transform="translate(0.299 1.643)" fill="#fff"/>
    <path id="패스_55" data-name="패스 55" d="M98.444,88.276c-6.774,1.556-12.583,7.78-15.56,16.649-2.749,8.3-12.915,5.882-24.9,2.189a49.378,49.378,0,0,0-8.7-2.189c-9.066-.809-15.892,3.807-22.5,8.3-4.149,2.822-8.5,5.747-13.413,7.334-2.676.861-3.693.539-3.828.363-.757-.944.519-5.187,2.656-9.18h8.434c3.745,0,6.556-1.452,7.739-4l7.645-16.712,9.627-.228a9.087,9.087,0,0,0,7.687-5.1L57.365,76.5H78.838a6.224,6.224,0,0,0,6.224-6.224V69.24h8.081a6.39,6.39,0,0,0,6.349-5.187h4.367a6.224,6.224,0,1,0,0-12.448H99.492a6.39,6.39,0,0,0-6.349-5.187H85.062V45.382a6.224,6.224,0,0,0-6.224-6.224h-16.6v-4.7c4.378-2.075,7.925-5.954,7.925-10.55V11.149h3.485a2.075,2.075,0,1,0,0-4.149H68.1a2.075,2.075,0,0,0-2.075,2.075V23.909c0,4.295-5.726,7.977-10.373,7.977S45.28,28.2,45.28,23.909V9.075A2.075,2.075,0,0,0,43.206,7H38.382a2.075,2.075,0,1,0,0,4.149h2.645V23.909c0,4.876,4.015,9.025,8.766,10.913v4.336H6.224A6.224,6.224,0,0,0,0,45.382v24.9A6.224,6.224,0,0,0,6.224,76.5H13.87L.55,104.925A4.917,4.917,0,0,0,.675,109.7a4.678,4.678,0,0,0,4.066,2.075h2.78c-1.712,3.589-3.548,8.9-1.234,11.784a5.021,5.021,0,0,0,4.149,1.753,13.828,13.828,0,0,0,4.149-.768c5.477-1.774,10.041-4.865,14.461-7.853,6.276-4.243,12.22-8.3,19.8-7.583a48.753,48.753,0,0,1,7.853,2.023c10.28,3.112,25.83,7.936,30.083-4.844,2.49-7.49,7.178-12.7,12.521-13.921,5.124-1.172,10.778,1.224,16.359,6.95a2.075,2.075,0,1,0,2.967-2.894C110.311,87.757,103.05,87.218,98.444,88.276ZM49.492,84.023a5.052,5.052,0,0,1-3.973,2.635l-7.583.135,4.72-10.29H52.832ZM105.809,57.83a2.075,2.075,0,0,1-1.961,2.075H99.585V55.755h4.263A2.075,2.075,0,0,1,105.809,57.83ZM93.143,50.568a2.2,2.2,0,0,1,2.293,2.075V63.016a2.2,2.2,0,0,1-2.293,2.075H85.062V50.568ZM58.091,35.8v3.361H53.942V35.921a13.735,13.735,0,0,0,1.66.114,14.149,14.149,0,0,0,2.49-.239ZM6.224,72.353A2.075,2.075,0,0,1,4.15,70.278v-24.9a2.075,2.075,0,0,1,2.075-2.075H78.838a2.075,2.075,0,0,1,2.075,2.075v5.187H49.793a2.075,2.075,0,1,0,0,4.149h31.12v15.56a2.075,2.075,0,0,1-2.075,2.075H40.052l-.259.529h0a1.96,1.96,0,0,0-.187.3l-11.483,25.1H8.3L21.141,70.734A5.083,5.083,0,0,1,25.166,68.2h4.793a2.075,2.075,0,0,0,0-4.149H25.166A9.108,9.108,0,0,0,17.376,69l-1.566,3.351ZM4.243,107.4c-.114-.156-.062-.415.083-.737l2-4.232h19.9l-1.649,3.6c-.539,1.172-2.4,1.587-3.963,1.587H4.751a.591.591,0,0,1-.508-.218Z" transform="translate(0 0)" fill="#fff"/>
  </g>
</svg>
