<svg xmlns="http://www.w3.org/2000/svg" xmlns:xlink="http://www.w3.org/1999/xlink" viewBox="0 0 658.4 213.76"><defs><linearGradient id="새_그라디언트_견본_2" x1="325.86" y1="150.69" x2="717.79" y2="150.69" gradientUnits="userSpaceOnUse"><stop offset="0" stop-color="#36b2a6"/><stop offset="0.2" stop-color="#34adaa"/><stop offset="0.44" stop-color="#2d9eb6"/><stop offset="0.51" stop-color="#2b98ba"/><stop offset="1" stop-color="#26264e"/></linearGradient><linearGradient id="새_그라디언트_견본_2-2" x1="61.8" y1="106.88" x2="852.81" y2="106.88" xlink:href="#새_그라디언트_견본_2"/></defs><title>SS 로고</title><g id="레이어_2" data-name="레이어 2"><g id="_" data-name="???"><path d="M326.15,210.55q33.62-58.26,67.25-116.5a12.84,12.84,0,0,1,11.11-6.41H605.67a2.13,2.13,0,0,1,1.85,3.2L590.86,119.7a12.81,12.81,0,0,1-11.11,6.41h-153a12.82,12.82,0,0,0-11.1,6.42l-43.2,74.81a12.81,12.81,0,0,1-11.1,6.41H328A2.13,2.13,0,0,1,326.15,210.55Z" fill="url(#새_그라디언트_견본_2)"/><path d="M237.9,213.75A12.82,12.82,0,0,0,249,207.34L342.8,44.89a12.82,12.82,0,0,1,11.11-6.41H630.35a12.82,12.82,0,0,0,11.1-6.42L658.11,3.21A2.14,2.14,0,0,0,656.26,0H213.4c-2.36,0-4.34,0-7.08.15a10.13,10.13,0,0,0-4.78,1.77,12.46,12.46,0,0,0-3.7,3.46,48.94,48.94,0,0,0-2.58,4.36c-1.29,2.23-2.58,4.45-3.86,6.68L160.52,69.9,128.13,126l-16.19,28.05-8.1,14a14.65,14.65,0,0,1-3.71,4.51,12.06,12.06,0,0,1-7.36,2.68c-1.76.07-3.51,0-5.26,0H28.38c-.4,0-.8,0-1.2,0a12.1,12.1,0,0,0-7.29,2.94,12.76,12.76,0,0,0-2.59,2.94c-.78,1.22-1.46,2.5-2.18,3.75l-4.93,8.54L.34,210.55a1.86,1.86,0,0,0,0,2.17c.69,1.14,1.61,1,2.7,1Zm-11.1-44.88a12.86,12.86,0,0,1-11.11,6.41H144.13q17.84-30.92,35.68-61.83,14.76-25.59,29.54-51.17l7.38-12.79c1-1.8,2-3.65,3.15-5.38A12.88,12.88,0,0,1,227,39a12.82,12.82,0,0,1,2.89-.47c3.18-.15,6.35,0,9.53,0h62.66Q264.43,103.67,226.8,168.87Z" fill="url(#새_그라디언트_견본_2-2)"/></g></g></svg>