<svg xmlns="http://www.w3.org/2000/svg" width="60" height="72.656" viewBox="0 0 60 72.656">
  <g id="그룹_76" data-name="그룹 76" transform="translate(-1283 -568)">
    <g id="그룹_60" data-name="그룹 60" transform="translate(1283 568)">
      <path id="패스_73" data-name="패스 73" d="M0,14.329V57.134H60V14.329ZM4.71,46.352a.6.6,0,0,0-.5.275v-2.17a.6.6,0,1,0,0-.644v-2.17a.6.6,0,1,0,0-.646V38.831a.6.6,0,1,0,0-.644v-2.17a.6.6,0,1,0,0-.648V33.2a.6.6,0,1,0,0-.644V30.387a.6.6,0,1,0,0-.646V27.567a.6.6,0,1,0,0-.644v-2.17a.6.6,0,1,0,0-.644V21.941a.6.6,0,1,0,0-.646V18.536L5.6,19.925a.594.594,0,0,0,.808.808l.6.6a.594.594,0,0,0,.808.808l.6.6a.594.594,0,0,0,.808.808l.6.6a.594.594,0,0,0,.808.808l.6.6a.594.594,0,0,0,.119.726.587.587,0,0,0,.688.081l.6.6a.594.594,0,0,0,.808.808l.6.6a.594.594,0,0,0,.809.809l.6.6a.594.594,0,0,0,.809.809l.6.6a.594.594,0,0,0,.809.809l.595.595a.594.594,0,0,0,.809.809l.6.6a.592.592,0,0,0,.564.88l-.86.86a.6.6,0,1,0-.551.551l-.851.851a.6.6,0,1,0-.557.557l-.85.851a.6.6,0,1,0-.557.556l-.85.85a.6.6,0,1,0-.557.557l-.854.854a.6.6,0,1,0-.549.549l-.855.855a.6.6,0,1,0-.553.553l-.858.859a.6.6,0,1,0-.55.549l-.853.853a.6.6,0,1,0-.556.554l-.853.853a.6.6,0,1,0-.555.554l-.853.853a.6.6,0,1,0-.554.554L5.3,49.8c0-.013-.263-.64-.593-.64a.6.6,0,0,0-.5.275V47.273a.6.6,0,1,0,.5-.92ZM53.042,21.286l.58-.58a.6.6,0,0,0,.83-.83l1.339-1.34v2.669a.6.6,0,1,0,0,.826v1.986a.6.6,0,1,0,0,.825v1.99a.6.6,0,1,0,0,.826v1.993a.6.6,0,1,0,0,.826v1.986a.6.6,0,1,0,0,.825v1.99a.6.6,0,1,0,0,.829V38.1a.6.6,0,1,0,0,.825v1.986a.6.6,0,1,0,0,.825v1.989a.6.6,0,1,0,0,.825v1.989a.6.6,0,1,0,0,.825v1.986a.6.6,0,0,0-1.014.537l-.944-.944a.6.6,0,1,0-.461-.461l-.946-.946a.6.6,0,1,0-.467-.466l-.943-.944a.6.6,0,1,0-.457-.457l-.951-.951a.6.6,0,1,0-.455-.455l-.952-.952a.6.6,0,1,0-.455-.455l-.952-.951a.6.6,0,1,0-.461-.461l-.943-.943a.6.6,0,1,0-.461-.461l-.945-.945a.6.6,0,1,0-.467-.467l-.943-.943a.6.6,0,1,0-.457-.458l-.95-.95a.6.6,0,1,0-.458-.458l-.955-.955a.6.6,0,0,0,.626-.917l.577-.577a.587.587,0,0,0,.794-.112.6.6,0,0,0,.036-.718l.577-.576a.6.6,0,0,0,.83-.83l.575-.575a.6.6,0,0,0,.83-.83l.579-.579a.6.6,0,0,0,.83-.83l.578-.578a.6.6,0,0,0,.829-.829l.58-.58a.6.6,0,0,0,.83-.829l.578-.578a.6.6,0,0,0,.83-.83l.577-.576a.6.6,0,0,0,.83-.83l.575-.575a.6.6,0,0,0,.829-.826Zm2.749,28.888V50.9l-.554-.554a.6.6,0,0,0,.124.013A.588.588,0,0,0,55.792,50.174Zm-2.026,2.752H6.235L22.416,36.744,30,44.328l7.588-7.588ZM30,40.276,8.261,18.537H51.74ZM4.754,50.354l-.546.545v-.816A.585.585,0,0,0,4.754,50.354Zm2.174-23.11a.6.6,0,1,1,.6.6A.6.6,0,0,1,6.928,27.245Zm0,2.819a.6.6,0,1,1,.6.6A.6.6,0,0,1,6.928,30.064Zm0,8.444a.6.6,0,1,1,.6.6A.6.6,0,0,1,6.928,38.508Zm0-5.633a.6.6,0,1,1,.6.6A.6.6,0,0,1,6.928,32.876Zm0,2.815a.6.6,0,1,1,.6.6A.6.6,0,0,1,6.928,35.691Zm0-11.261a.6.6,0,1,1,.6.6A.6.6,0,0,1,6.928,24.43ZM8.336,37.1a.6.6,0,1,1,.6.6A.6.6,0,0,1,8.336,37.1Zm0-2.818a.6.6,0,1,1,.6.6A.6.6,0,0,1,8.336,34.283Zm0,8.445a.6.6,0,1,1,.6.6A.6.6,0,0,1,8.336,42.728Zm0-2.811a.6.6,0,1,1,.6.6A.6.6,0,0,1,8.336,39.917ZM5.521,34.283a.6.6,0,1,1,.6.6A.6.6,0,0,1,5.521,34.283Zm0,2.818a.6.6,0,1,1,.6.6A.6.6,0,0,1,5.521,37.1Zm2.815-5.629a.6.6,0,1,1,.6.6A.6.6,0,0,1,8.336,31.472ZM6.928,41.319a.6.6,0,1,1,.6.6A.6.6,0,0,1,6.928,41.319Zm-1.407-1.4a.6.6,0,1,1,.6.6A.6.6,0,0,1,5.521,39.917Zm0-8.445a.6.6,0,1,1,.6.6A.6.6,0,0,1,5.521,31.472Zm0,11.256a.6.6,0,1,1,.6.6A.6.6,0,0,1,5.521,42.728Zm1.407,1.408a.6.6,0,1,1,.6.6A.6.6,0,0,1,6.928,44.135ZM5.521,23.026a.6.6,0,1,1,.6.6A.6.6,0,0,1,5.521,23.026Zm0,2.811a.6.6,0,1,1,.6.6A.6.6,0,0,1,5.521,25.837Zm0,2.819a.6.6,0,1,1,.6.6A.6.6,0,0,1,5.521,28.656Zm2.815,0a.6.6,0,1,1,.6.6A.6.6,0,0,1,8.336,28.656Zm4.217,4.219a.6.6,0,1,1,.6.6A.6.6,0,0,1,12.553,32.876ZM5.521,45.543a.6.6,0,1,1,.6.6A.6.6,0,0,1,5.521,45.543Zm7.032-9.852a.6.6,0,1,1,.6.6A.6.6,0,0,1,12.553,35.691Zm1.411,1.41a.6.6,0,1,1,.6.6A.6.6,0,0,1,13.964,37.1Zm-1.411,1.408a.6.6,0,1,1,.6.6A.6.6,0,0,1,12.553,38.508Zm0-8.444a.6.6,0,1,1,.6.6A.6.6,0,0,1,12.553,30.064Zm2.818,2.811a.6.6,0,1,1,.6.6A.6.6,0,0,1,15.371,32.875Zm1.407,1.408a.6.6,0,1,1,.6.6A.6.6,0,0,1,16.778,34.283Zm-2.815,0a.6.6,0,1,1,.6.6A.6.6,0,0,1,13.964,34.283Zm0-2.811a.6.6,0,1,1,.6.6A.6.6,0,0,1,13.964,31.472Zm1.408,4.219a.6.6,0,1,1,.6.6A.6.6,0,0,1,15.371,35.691Zm-4.222-7.034a.6.6,0,1,1,.6.6A.6.6,0,0,1,11.149,28.656ZM9.739,35.691a.6.6,0,1,1,.6.6A.6.6,0,0,1,9.739,35.691Zm0,2.818a.6.6,0,1,1,.6.6A.6.6,0,0,1,9.739,38.508Zm0,2.811a.6.6,0,1,1,.6.6A.6.6,0,0,1,9.739,41.319Zm0-8.444a.6.6,0,1,1,.6.6A.6.6,0,0,1,9.739,32.876Zm-1.4-7.039a.6.6,0,1,1,.6.6A.6.6,0,0,1,8.336,25.837Zm2.813,8.446a.6.6,0,1,1,.6.6A.6.6,0,0,1,11.149,34.283Zm0-2.811a.6.6,0,1,1,.6.6A.6.6,0,0,1,11.149,31.472ZM9.739,30.064a.6.6,0,1,1,.6.6A.6.6,0,0,1,9.739,30.064ZM11.149,37.1a.6.6,0,1,1,.6.6A.6.6,0,0,1,11.149,37.1ZM9.739,27.245a.6.6,0,1,1,.6.6A.6.6,0,0,1,9.739,27.245Zm1.411,12.672a.6.6,0,1,1,.6.6A.6.6,0,0,1,11.149,39.917Zm34.963-8.445a.6.6,0,1,1-.6-.6A.6.6,0,0,1,46.112,31.472Zm7.031,4.222a.6.6,0,1,1-.6-.6A.6.6,0,0,1,53.144,35.694Zm0,2.815a.6.6,0,1,1-.6-.6A.6.6,0,0,1,53.144,38.508Zm0-8.444a.6.6,0,1,1-.6-.6A.6.6,0,0,1,53.144,30.064Zm0,2.812a.6.6,0,1,1-.6-.6A.6.6,0,0,1,53.144,32.876Zm0,8.444a.6.6,0,1,1-.6-.6A.6.6,0,0,1,53.144,41.319Zm0-14.075a.6.6,0,1,1-.6-.6A.6.6,0,0,1,53.144,27.245Zm-1.4,4.227a.6.6,0,1,1-.6-.6A.6.6,0,0,1,51.742,31.472Zm0,2.811a.6.6,0,1,1-.6-.6A.6.6,0,0,1,51.742,34.283Zm1.4,9.853a.6.6,0,1,1-.6-.6A.6.6,0,0,1,53.144,44.135Zm-1.4-15.479a.6.6,0,1,1-.6-.6A.6.6,0,0,1,51.742,28.656Zm0-2.819a.6.6,0,1,1-.6-.6A.6.6,0,0,1,51.742,25.837ZM53.36,37.1a.6.6,0,1,1,.6.6A.6.6,0,0,1,53.36,37.1Zm0,2.816a.6.6,0,1,1,.6.6A.6.6,0,0,1,53.36,39.917Zm0,2.811a.6.6,0,1,1,.6.6A.6.6,0,0,1,53.36,42.728Zm0,2.815a.6.6,0,1,1,.6.6A.6.6,0,0,1,53.36,45.543ZM51.742,37.1a.6.6,0,1,1-.6-.6A.6.6,0,0,1,51.742,37.1Zm1.4-12.671a.6.6,0,1,1-.6-.6A.6.6,0,0,1,53.144,24.43Zm.216-1.4a.6.6,0,1,1,.6.6A.6.6,0,0,1,53.36,23.026Zm0,5.63a.6.6,0,1,1,.6.6A.6.6,0,0,1,53.36,28.656Zm0-2.819a.6.6,0,1,1,.6.6A.6.6,0,0,1,53.36,25.837Zm0,5.635a.6.6,0,1,1,.6.6A.6.6,0,0,1,53.36,31.472Zm0,2.811a.6.6,0,1,1,.6.6A.6.6,0,0,1,53.36,34.283Zm-5.843,1.411a.6.6,0,1,1-.6-.6A.6.6,0,0,1,47.516,35.694ZM43.3,34.283a.6.6,0,1,1-.6-.6A.6.6,0,0,1,43.3,34.283Zm8.443,5.634a.6.6,0,1,1-.6-.6A.6.6,0,0,1,51.742,39.917Zm-4.226-9.853a.6.6,0,1,1-.6-.6A.6.6,0,0,1,47.516,30.064Zm1.411,9.853a.6.6,0,1,1-.6-.6A.6.6,0,0,1,48.927,39.917Zm-1.411-1.408a.6.6,0,1,1-.6-.6A.6.6,0,0,1,47.516,38.508Zm-1.4-4.226a.6.6,0,1,1-.6-.6A.6.6,0,0,1,46.112,34.283ZM48.927,37.1a.6.6,0,1,1-.6-.6A.6.6,0,0,1,48.927,37.1ZM44.7,35.694a.6.6,0,1,1-.6-.6A.6.6,0,0,1,44.7,35.694Zm0-2.818a.6.6,0,1,1-.6-.6A.6.6,0,0,1,44.7,32.876ZM46.112,37.1a.6.6,0,1,1-.6-.6A.6.6,0,0,1,46.112,37.1Zm1.4-4.225a.6.6,0,1,1-.6-.6A.6.6,0,0,1,47.516,32.876Zm2.818,0a.6.6,0,1,1-.6-.6A.6.6,0,0,1,50.335,32.876Zm-1.408,1.407a.6.6,0,1,1-.6-.6A.6.6,0,0,1,48.927,34.283Zm1.408-4.219a.6.6,0,1,1-.6-.6A.6.6,0,0,1,50.335,30.064Zm1.408,12.664a.6.6,0,1,1-.6-.6A.6.6,0,0,1,51.742,42.728ZM50.335,27.245a.6.6,0,1,1-.6-.6A.6.6,0,0,1,50.335,27.245Zm0,8.449a.6.6,0,1,1-.6-.6A.6.6,0,0,1,50.335,35.694Zm-1.408-7.037a.6.6,0,1,1-.6-.6A.6.6,0,0,1,48.927,28.656Zm1.408,9.852a.6.6,0,1,1-.6-.6A.6.6,0,0,1,50.335,38.508Zm-1.408-7.037a.6.6,0,1,1-.6-.6A.6.6,0,0,1,48.927,31.472Zm1.408,9.848a.6.6,0,1,1-.6-.6A.6.6,0,0,1,50.335,41.319Z" transform="translate(0 -14.329)" fill="#33a495"/>
    </g>
    <text id="E-Mail" transform="translate(1287 636.656)" fill="#33a495" font-size="17.5" font-family="SegoeUI-Bold, Segoe UI" font-weight="700"><tspan x="0" y="0">E-Mail</tspan></text>
  </g>
</svg>
