<svg xmlns="http://www.w3.org/2000/svg" width="60" height="83.656" viewBox="0 0 60 83.656">
  <g id="그룹_75" data-name="그룹 75" transform="translate(-800 -557)">
    <g id="noun_Printer_1669269" transform="translate(800 557)">
      <g id="그룹_62" data-name="그룹 62">
        <path id="패스_75" data-name="패스 75" d="M55.792,17.195H51.4V12.248L39.154,0H8.6V17.195H4.208A4.213,4.213,0,0,0,0,21.4V44.33a4.213,4.213,0,0,0,4.208,4.208H8.6V60H51.4V48.538h4.389A4.213,4.213,0,0,0,60,44.329V21.4A4.213,4.213,0,0,0,55.792,17.195ZM38.6,10.88a.594.594,0,0,0,0-1.15V8.069a.595.595,0,0,0,0-1.15V5.395l7.41,7.409H38.6ZM12.805,4.208H35.731V15.67H47.194v2.867H12.805Zm34.39,51.583H12.805V35.732h34.39V55.792ZM55.792,24a.6.6,0,1,0,0,.741v2.071a.6.6,0,1,0,0,.74v2.074A.6.6,0,0,0,54.729,30h0a.595.595,0,0,0,1.063.37v2.075a.6.6,0,1,0,0,.74v2.071a.6.6,0,1,0,0,.74v2.075a.6.6,0,1,0,0,.74v2.074a.6.6,0,1,0,0,.74V43.7a.594.594,0,0,0-1,.631H53.046a.6.6,0,1,0-1.132-.261.589.589,0,0,0,.062.261H50.061V33.29a.6.6,0,1,0-.958-.475c0,.017,0,.033.005.049H47.477c0-.016,0-.032,0-.049a.6.6,0,0,0-1.195,0,.44.44,0,0,0,.005.049h-1.63a.441.441,0,0,0,.005-.049.6.6,0,0,0-1.195,0c0,.017,0,.033,0,.049H41.852c0-.016,0-.032,0-.049a.6.6,0,0,0-1.2,0,.44.44,0,0,0,.005.049H39.037a.441.441,0,0,0,.005-.049.6.6,0,0,0-1.195,0c0,.017,0,.033,0,.049h-1.63c0-.016,0-.032,0-.049a.6.6,0,0,0-1.195,0c0,.017,0,.033,0,.049H33.412c0-.016,0-.032,0-.049a.6.6,0,0,0-1.2,0c0,.017,0,.033,0,.049H30.6c0-.016.005-.032.005-.049a.6.6,0,0,0-1.2,0c0,.017,0,.033,0,.049H27.779c0-.016,0-.032,0-.049a.6.6,0,0,0-1.2,0c0,.017,0,.033,0,.049H24.969c0-.016,0-.032,0-.049a.6.6,0,1,0-1.2,0c0,.017,0,.033,0,.049H22.152c0-.016,0-.032,0-.049a.6.6,0,0,0-1.2,0c0,.017,0,.033,0,.049h-1.63c0-.016,0-.032,0-.049a.6.6,0,0,0-1.2,0c0,.017,0,.033,0,.049H16.526c0-.016,0-.032,0-.049a.6.6,0,0,0-1.2,0c0,.017,0,.033,0,.049H13.708c0-.016,0-.032,0-.049a.6.6,0,0,0-1.2,0c0,.017,0,.033,0,.049h-1.63c0-.016,0-.032,0-.049a.6.6,0,1,0-.961.472V44.329H8.024a.6.6,0,1,0-1.07,0H5.21a.587.587,0,0,0,.062-.261A.6.6,0,0,0,4.208,43.7V41.626a.6.6,0,1,0,0-.738V38.81a.6.6,0,1,0,0-.737V36a.6.6,0,1,0,0-.737V33.185a.6.6,0,1,0,0-.738V30.37A.6.6,0,0,0,5.272,30h0a.6.6,0,0,0-1.064-.37V27.553a.6.6,0,1,0,0-.738V24.742a.6.6,0,1,0,0-.739V21.922a.6.6,0,0,0,1.064-.37.587.587,0,0,0-.021-.149H6.914a.587.587,0,0,0-.022.149.6.6,0,1,0,1.2,0,.587.587,0,0,0-.021-.149H9.725a.587.587,0,0,0-.021.149.6.6,0,1,0,1.2,0,.587.587,0,0,0-.022-.149H12.54a.587.587,0,0,0-.022.149.6.6,0,1,0,1.2,0,.587.587,0,0,0-.021-.149h1.666a.587.587,0,0,0-.022.149.6.6,0,1,0,1.2,0,.615.615,0,0,0-.021-.149h1.657a.587.587,0,0,0-.022.149.6.6,0,1,0,1.2,0,.587.587,0,0,0-.022-.149h1.663a.587.587,0,0,0-.021.149.6.6,0,1,0,1.2,0,.615.615,0,0,0-.021-.149H23.8a.587.587,0,0,0-.022.149.6.6,0,1,0,1.2,0,.587.587,0,0,0-.022-.149h1.658a.587.587,0,0,0-.022.149.6.6,0,1,0,1.2,0,.587.587,0,0,0-.022-.149h1.667a.587.587,0,0,0-.021.149.6.6,0,1,0,1.2,0,.587.587,0,0,0-.022-.149h1.661a.587.587,0,0,0-.021.149.6.6,0,1,0,1.2,0,.615.615,0,0,0-.021-.149h1.658a.587.587,0,0,0-.021.149.6.6,0,1,0,1.195,0,.615.615,0,0,0-.021-.149h1.663a.587.587,0,0,0-.021.149.6.6,0,1,0,1.195,0,.615.615,0,0,0-.021-.149h1.663a.587.587,0,0,0-.022.149.6.6,0,1,0,1.2,0,.587.587,0,0,0-.021-.149h1.658a.587.587,0,0,0-.021.149.6.6,0,1,0,1.195,0,.587.587,0,0,0-.022-.149h1.663a.587.587,0,0,0-.022.149.6.6,0,1,0,1.195,0,.587.587,0,0,0-.021-.149h1.666a.587.587,0,0,0-.022.149.6.6,0,1,0,1.2,0,.615.615,0,0,0-.021-.149h1.657a.587.587,0,0,0-.021.149.6.6,0,1,0,1.194,0,.587.587,0,0,0-.021-.149h1.663a.587.587,0,0,0-.021.149.595.595,0,0,0,1.063.371V24ZM19.34,30h0a.6.6,0,0,1-1.2,0h0a.6.6,0,0,1,1.2,0Zm0-5.627a.6.6,0,1,1-.6-.6A.6.6,0,0,1,19.34,24.372Zm0,2.812a.6.6,0,1,1-.6-.6A.6.6,0,0,1,19.34,27.184Zm1.411,4.225a.6.6,0,1,1-.6-.6A.6.6,0,0,1,20.751,31.409Zm1.4-1.41h0a.6.6,0,0,1-1.2,0h0a.6.6,0,1,1,1.2,0Zm-1.4-7.034a.6.6,0,1,1-.6-.6A.6.6,0,0,1,20.751,22.964Zm0,5.626a.6.6,0,1,1-.6-.6A.6.6,0,0,1,20.751,28.591Zm0-2.811a.6.6,0,1,1-.6-.6A.6.6,0,0,1,20.751,25.78ZM16.531,30h0a.6.6,0,0,1-1.2,0h0a.6.6,0,0,1,1.2,0ZM15.124,25.78a.6.6,0,1,1-.6-.6A.6.6,0,0,1,15.124,25.78Zm7.032,1.4a.6.6,0,1,1-.6-.6A.6.6,0,0,1,22.156,27.184Zm-5.624,0h0a.6.6,0,1,1-1.2,0h0a.6.6,0,0,1,1.2,0Zm-1.408-4.219a.6.6,0,1,1-.6-.6A.6.6,0,0,1,15.124,22.964Zm2.815,2.815a.6.6,0,1,1-.6-.6A.6.6,0,0,1,17.939,25.78Zm0-2.815a.6.6,0,1,1-.6-.6A.6.6,0,0,1,17.939,22.964Zm0,8.444a.6.6,0,1,1-.6-.6A.6.6,0,0,1,17.939,31.409Zm0-2.818a.6.6,0,1,1-.6-.6A.6.6,0,0,1,17.939,28.591Zm-1.408-4.219a.6.6,0,1,1-.6-.6A.6.6,0,0,1,16.531,24.372Zm9.848,1.408a.6.6,0,1,1-.6-.6A.6.6,0,0,1,26.379,25.78Zm1.4,1.4a.6.6,0,1,1-.6-.6A.6.6,0,0,1,27.782,27.184Zm-1.4-4.219a.6.6,0,1,1-.6-.6A.6.6,0,0,1,26.379,22.964Zm1.4,1.408a.6.6,0,1,1-.6-.6A.6.6,0,0,1,27.782,24.372Zm-5.626,0a.6.6,0,1,1-.6-.6A.6.6,0,0,1,22.156,24.372Zm7.037-1.408a.6.6,0,1,1-.6-.6A.6.6,0,0,1,29.192,22.964Zm0,5.626a.6.6,0,1,1-.6-.6A.6.6,0,0,1,29.192,28.591Zm0,2.818a.6.6,0,1,1-.6-.6A.6.6,0,0,1,29.192,31.409ZM27.782,30h0a.6.6,0,0,1-1.2,0h0a.6.6,0,0,1,1.2,0Zm-2.81,0h0a.6.6,0,0,1-1.2,0h0a.6.6,0,0,1,1.2,0Zm-1.408-1.408a.6.6,0,1,1-.6-.6A.6.6,0,0,1,23.564,28.591Zm0-5.626a.6.6,0,1,1-.6-.6A.6.6,0,0,1,23.564,22.964Zm0,8.444a.6.6,0,1,1-.6-.6A.6.6,0,0,1,23.564,31.409Zm1.408-7.037a.6.6,0,1,1-.6-.6A.6.6,0,0,1,24.972,24.372Zm1.407,7.037a.6.6,0,1,1-.6-.6A.6.6,0,0,1,26.379,31.409Zm-1.407-4.226h0a.6.6,0,1,1-1.2,0h0a.6.6,0,0,1,1.2,0Zm1.407,1.408a.6.6,0,1,1-.6-.6A.6.6,0,0,1,26.379,28.591Zm2.813-2.811a.6.6,0,1,1-.6-.6A.6.6,0,0,1,29.192,25.78Zm-21.1,7.036a.6.6,0,1,1-.6-.6A.6.6,0,0,1,8.087,32.816Zm0,2.812a.6.6,0,1,1-.6-.6A.6.6,0,0,1,8.087,35.627Zm0,2.815a.6.6,0,1,1-.6-.6A.6.6,0,0,1,8.087,38.443Zm0-8.444h0a.6.6,0,0,1-1.2,0h0a.6.6,0,0,1,1.2,0ZM9.5,42.665a.6.6,0,1,1-.6-.6A.6.6,0,0,1,9.5,42.665ZM8.087,41.258a.6.6,0,1,1-.6-.6A.6.6,0,0,1,8.087,41.258Zm0-14.074a.6.6,0,1,1-.6-.6A.6.6,0,0,1,8.087,27.184Zm0-2.812a.6.6,0,1,1-.6-.6A.6.6,0,0,1,8.087,24.372ZM6.681,28.591a.6.6,0,1,1-.6-.6A.6.6,0,0,1,6.681,28.591Zm0,11.26a.6.6,0,1,1-.6-.6A.6.6,0,0,1,6.681,39.85Zm0-5.627a.6.6,0,1,1-.6-.6A.6.6,0,0,1,6.681,34.223Zm0,2.812a.6.6,0,1,1-.6-.6A.6.6,0,0,1,6.681,37.035Zm0,5.63a.6.6,0,1,1-.6-.6A.6.6,0,0,1,6.681,42.665Zm0-11.256a.6.6,0,1,1-.6-.6A.6.6,0,0,1,6.681,31.409Zm0-5.629a.6.6,0,1,1-.6-.6A.6.6,0,0,1,6.681,25.78Zm0-2.815a.6.6,0,1,1-.6-.6A.6.6,0,0,1,6.681,22.964ZM9.5,39.85a.6.6,0,1,1-.6-.6A.6.6,0,0,1,9.5,39.85Zm0-16.886a.6.6,0,1,1-.6-.6A.6.6,0,0,1,9.5,22.964Zm2.813,2.815a.6.6,0,1,1-.6-.6A.6.6,0,0,1,12.309,25.78Zm0-2.815a.6.6,0,1,1-.6-.6A.6.6,0,0,1,12.309,22.964ZM13.713,30h0a.6.6,0,0,1-1.2,0h0a.6.6,0,0,1,1.2,0Zm-1.4-1.408a.6.6,0,1,1-.6-.6A.6.6,0,0,1,12.309,28.591Zm0,2.818a.6.6,0,1,1-.6-.6A.6.6,0,0,1,12.309,31.409Zm1.4-4.225a.6.6,0,1,1-.6-.6A.6.6,0,0,1,13.713,27.184Zm1.411,4.225a.6.6,0,1,1-.6-.6A.6.6,0,0,1,15.124,31.409Zm-1.411-7.037a.6.6,0,1,1-.6-.6A.6.6,0,0,1,13.713,24.372ZM9.5,37.035a.6.6,0,1,1-.6-.6A.6.6,0,0,1,9.5,37.035Zm0-8.444a.6.6,0,1,1-.6-.6A.6.6,0,0,1,9.5,28.591Zm0,2.818a.6.6,0,1,1-.6-.6A.6.6,0,0,1,9.5,31.409Zm0,2.815a.6.6,0,1,1-.6-.6A.6.6,0,0,1,9.5,34.223Zm0-8.444a.6.6,0,1,1-.6-.6A.6.6,0,0,1,9.5,25.78Zm5.627,2.811a.6.6,0,1,1-.6-.6A.6.6,0,0,1,15.124,28.591ZM10.9,27.184a.6.6,0,1,1-.6-.6A.6.6,0,0,1,10.9,27.184Zm0-2.812a.6.6,0,1,1-.6-.6A.6.6,0,0,1,10.9,24.372ZM10.9,30h0a.6.6,0,0,1-1.2,0h0a.6.6,0,0,1,1.2,0ZM23.564,25.78a.6.6,0,1,1-.6-.6A.6.6,0,0,1,23.564,25.78Zm28.142-2.815a.6.6,0,1,1-.6-.6A.6.6,0,0,1,51.707,22.964Zm0,8.444a.6.6,0,1,1-.6-.6A.6.6,0,0,1,51.707,31.409Zm0-2.818a.6.6,0,1,1-.6-.6A.6.6,0,0,1,51.707,28.591Zm0,5.633a.6.6,0,1,1-.6-.6A.6.6,0,0,1,51.707,34.223Zm1.4,7.034a.6.6,0,1,1-.6-.6A.6.6,0,0,1,53.108,41.258Zm0-5.63a.6.6,0,1,1-.6-.6A.6.6,0,0,1,53.108,35.627Zm0-2.812a.6.6,0,1,1-.6-.6A.6.6,0,0,1,53.108,32.816Zm-1.4,4.219a.6.6,0,1,1-.6-.6A.6.6,0,0,1,51.707,37.035Zm1.4,1.408a.6.6,0,1,1-.6-.6A.6.6,0,0,1,53.108,38.443ZM48.627,27.135A1.433,1.433,0,1,1,50.06,25.7,1.432,1.432,0,0,1,48.627,27.135ZM30.6,30h0a.6.6,0,1,1-1.2,0h0a.6.6,0,1,1,1.2,0Zm18.29,1.41a.6.6,0,1,1-.6-.6A.6.6,0,0,1,48.892,31.409ZM47.481,30h0a.6.6,0,1,1-1.195,0h0a.6.6,0,1,1,1.195,0Zm.215-7.034a.6.6,0,1,1,.6.6A.6.6,0,0,1,47.7,22.964ZM53.108,30h0a.6.6,0,1,1-1.194,0h0a.6.6,0,1,1,1.194,0Zm-1.4,12.666a.6.6,0,1,1-.6-.6A.6.6,0,0,1,51.707,42.665Zm0-2.815a.6.6,0,1,1-.6-.6A.6.6,0,0,1,51.707,39.85ZM50.3,30h0a.6.6,0,0,1-1.2,0h0a.6.6,0,0,1,1.2,0Zm2.809-2.815a.6.6,0,1,1-.6-.6A.6.6,0,0,1,53.108,27.184Zm1.411-4.219a.6.6,0,1,1-.6-.6A.6.6,0,0,1,54.519,22.964ZM43.264,11.713a.6.6,0,1,1-.6-.6A.6.6,0,0,1,43.264,11.713Zm1.064,29.751H15.671V38.6H44.329Zm0,11.462H15.671V50.06H44.329Zm0-5.731H15.671V44.33H44.329ZM41.856,10.3a.6.6,0,1,1-.6-.6A.6.6,0,0,1,41.856,10.3Zm-1.407,1.408a.6.6,0,1,1-.6-.6A.6.6,0,0,1,40.449,11.713Zm0-2.812a.6.6,0,1,1-.6-.6A.6.6,0,0,1,40.449,8.9Zm14.07,19.69a.6.6,0,1,1-.6-.6A.6.6,0,0,1,54.519,28.591Zm0,11.26a.6.6,0,1,1-.6-.6A.6.6,0,0,1,54.519,39.85Zm0,2.815a.6.6,0,1,1-.6-.6A.6.6,0,0,1,54.519,42.665ZM53.108,24.372a.6.6,0,1,1-.6-.6A.6.6,0,0,1,53.108,24.372Zm1.411,12.663a.6.6,0,1,1-.6-.6A.6.6,0,0,1,54.519,37.035Zm0-2.812a.6.6,0,1,1-.6-.6A.6.6,0,0,1,54.519,34.223ZM46.077,22.964a.6.6,0,1,1-.6-.6A.6.6,0,0,1,46.077,22.964Zm8.442,8.444a.6.6,0,1,1-.6-.6A.6.6,0,0,1,54.519,31.409Zm0-5.629a.6.6,0,1,1-.6-.6A.6.6,0,0,1,54.519,25.78Zm-5.627,2.811a.6.6,0,1,1-.6-.6A.6.6,0,0,1,48.892,28.591ZM34.823,25.78a.6.6,0,1,1-.6-.6A.6.6,0,0,1,34.823,25.78Zm0,2.811a.6.6,0,1,1-.6-.6A.6.6,0,0,1,34.823,28.591Zm0-5.626a.6.6,0,1,1-.6-.6A.6.6,0,0,1,34.823,22.964Zm0,8.444a.6.6,0,1,1-.6-.6A.6.6,0,0,1,34.823,31.409Zm-1.409-7.037a.6.6,0,1,1-.6-.6A.6.6,0,0,1,33.415,24.372Zm2.811,0a.6.6,0,1,1-.6-.6A.6.6,0,0,1,36.226,24.372Zm0,2.812a.6.6,0,1,1-.6-.6A.6.6,0,0,1,36.226,27.184Zm0,2.815h0a.6.6,0,1,1-1.195,0h0a.6.6,0,1,1,1.195,0Zm-4.217-1.408a.6.6,0,1,1-.6-.6A.6.6,0,0,1,32.009,28.591Zm1.406-1.407a.6.6,0,1,1-.6-.6A.6.6,0,0,1,33.415,27.184ZM30.6,24.372a.6.6,0,1,1-.6-.6A.6.6,0,0,1,30.6,24.372Zm7.035,7.037a.6.6,0,1,1-.6-.6A.6.6,0,0,1,37.636,31.409ZM30.6,27.184a.6.6,0,1,1-.6-.6A.6.6,0,0,1,30.6,27.184Zm1.408,4.225a.6.6,0,1,1-.6-.6A.6.6,0,0,1,32.009,31.409ZM33.415,30h0a.6.6,0,0,1-1.2,0h0a.6.6,0,0,1,1.2,0ZM32.009,25.78a.6.6,0,1,1-.6-.6A.6.6,0,0,1,32.009,25.78Zm0-2.815a.6.6,0,1,1-.6-.6A.6.6,0,0,1,32.009,22.964Zm8.44,5.626a.6.6,0,1,1-.6-.6A.6.6,0,0,1,40.449,28.591Zm2.815,2.818a.6.6,0,1,1-.6-.6A.6.6,0,0,1,43.264,31.409ZM41.856,30h0a.6.6,0,0,1-1.2,0h0a.6.6,0,0,1,1.2,0Zm.213-7.034a.6.6,0,1,1,.6.6A.6.6,0,0,1,42.069,22.964Zm-1.62,0a.6.6,0,1,1-.6-.6A.6.6,0,0,1,40.449,22.964Zm2.815,5.626a.6.6,0,1,1-.6-.6A.6.6,0,0,1,43.264,28.591Zm2.813,2.818a.6.6,0,1,1-.6-.6A.6.6,0,0,1,46.077,31.409ZM42.9,27.135A1.433,1.433,0,1,1,44.329,25.7,1.432,1.432,0,0,1,42.9,27.135ZM44.666,30h0a.6.6,0,1,1-1.195,0h0a.6.6,0,1,1,1.195,0Zm-7.03-1.408a.6.6,0,1,1-.6-.6A.6.6,0,0,1,37.636,28.591Zm1.4-1.407a.6.6,0,1,1-.6-.6A.6.6,0,0,1,39.04,27.184Zm-1.4-4.219a.6.6,0,1,1-.6-.6A.6.6,0,0,1,37.636,22.964ZM39.04,30h0a.6.6,0,1,1-1.195,0h0a.6.6,0,1,1,1.195,0Zm-1.4-4.219a.6.6,0,1,1-.6-.6A.6.6,0,0,1,37.636,25.78Zm8.441,2.811a.6.6,0,1,1-.6-.6A.6.6,0,0,1,46.077,28.591ZM40.449,25.78a.6.6,0,1,1-.6-.6A.6.6,0,0,1,40.449,25.78Zm0,5.629a.6.6,0,1,1-.6-.6A.6.6,0,0,1,40.449,31.409ZM39.04,24.372a.6.6,0,1,1-.6-.6A.6.6,0,0,1,39.04,24.372Z" fill="#33a495"/>
      </g>
    </g>
    <text id="FAX" transform="translate(815 636.656)" fill="#33a495" font-size="17.5" font-family="SegoeUI-Bold, Segoe UI" font-weight="700"><tspan x="0" y="0">FAX</tspan></text>
  </g>
</svg>
