<svg xmlns="http://www.w3.org/2000/svg" width="60" height="83.656" viewBox="0 0 60 83.656">
  <g id="그룹_74" data-name="그룹 74" transform="translate(-317.001 -557)">
    <path id="패스_74" data-name="패스 74" d="M55.792,7.643H22.526a4.217,4.217,0,0,0-3.989-2.866H9.94A4.216,4.216,0,0,0,5.951,7.643H4.208A4.213,4.213,0,0,0,0,11.85V51.971A4.213,4.213,0,0,0,4.208,56.18H5.951a4.216,4.216,0,0,0,3.988,2.866h8.6a4.216,4.216,0,0,0,3.989-2.866H55.792A4.213,4.213,0,0,0,60,51.971V11.85A4.212,4.212,0,0,0,55.792,7.643ZM7.074,51.972H4.208V11.85H7.074ZM18.537,11.657a.595.595,0,0,0,0,1.118v1.69a.595.595,0,0,0,0,1.118v1.7a.595.595,0,0,0,0,1.118v1.694a.595.595,0,0,0,0,1.118v1.7a.594.594,0,0,0,0,1.117v1.7a.595.595,0,0,0,0,1.118v1.694a.595.595,0,0,0,0,1.118v1.7a.6.6,0,0,0-.391.559h0a.6.6,0,0,0,.391.559v1.7a.595.595,0,0,0,0,1.118v1.694a.595.595,0,0,0,0,1.118v1.7a.595.595,0,0,0,0,1.118v1.7a.595.595,0,0,0,0,1.118v1.694a.595.595,0,0,0,0,1.118v1.69a.595.595,0,0,0,0,1.118v1.7a.595.595,0,0,0,0,1.118v1.694a.6.6,0,0,0-.214.983H16.354a.6.6,0,1,0-.841,0H13.537a.6.6,0,1,0-.842,0H10.722a.6.6,0,0,0-.421-1.021.59.59,0,0,0-.361.124V52.078a.6.6,0,1,0,0-.946V49.264a.6.6,0,1,0,0-.946V46.456a.589.589,0,0,0,.361.125.6.6,0,1,0-.361-1.071V43.645a.589.589,0,0,0,.361.124.6.6,0,1,0-.361-1.07V40.831a.589.589,0,0,0,.361.124.6.6,0,1,0-.361-1.07V38.016a.589.589,0,0,0,.361.124.6.6,0,1,0-.361-1.07V35.205a.589.589,0,0,0,.361.124.6.6,0,1,0-.361-1.07V32.39a.6.6,0,0,0,.959-.473h0a.6.6,0,0,0-.959-.473V29.572a.6.6,0,1,0,0-.946V26.762a.6.6,0,1,0,0-.947V23.937a.6.6,0,1,0,0-.946V21.122a.6.6,0,1,0,0-.947V18.311a.6.6,0,1,0,0-.946V15.5a.6.6,0,1,0,0-.947V12.689a.6.6,0,1,0,0-.947V9.877a.6.6,0,0,0,.787-.893h1.965a.6.6,0,1,0,.85,0h1.968a.6.6,0,1,0,.85,0h1.96a.595.595,0,0,0,.218.978ZM55.792,51.972H21.4V11.85H55.792Zm-43.483-7.4a.6.6,0,1,1-.6-.6A.6.6,0,0,1,12.309,44.576Zm0-2.815a.6.6,0,1,1-.6-.6A.6.6,0,0,1,12.309,41.761Zm0-2.815a.6.6,0,1,1-.6-.6A.6.6,0,0,1,12.309,38.946Zm0,8.441a.6.6,0,1,1-.6-.6A.6.6,0,0,1,12.309,47.388Zm0-11.253a.6.6,0,1,1-.6-.6A.6.6,0,0,1,12.309,36.135Zm20.557,7.24H27.134V40.508h5.732Zm0-5.731H27.134V34.777h5.732ZM12.309,50.194a.6.6,0,1,1-.6-.6A.6.6,0,0,1,12.309,50.194Zm20.557-1.089H27.134V46.24h5.732Zm-20.557,3.9a.6.6,0,1,1-.6-.6A.6.6,0,0,1,12.309,53.009Zm20.557-21.1H27.134V29.044h5.732ZM13.713,51.6a.6.6,0,1,1-.6-.6A.6.6,0,0,1,13.713,51.6Zm0-2.815a.6.6,0,1,1-.6-.6A.6.6,0,0,1,13.713,48.787Zm0-11.248a.6.6,0,1,1-.6-.6A.6.6,0,0,1,13.713,37.539Zm-1.4-26.727a.6.6,0,1,1-.6-.6A.6.6,0,0,1,12.309,10.812Zm1.4,32.357a.6.6,0,1,1-.6-.6A.6.6,0,0,1,13.713,43.169Zm0-2.815a.6.6,0,1,1-.6-.6A.6.6,0,0,1,13.713,40.354Zm0,5.626a.6.6,0,1,1-.6-.6A.6.6,0,0,1,13.713,45.979Zm-1.4-32.356a.6.6,0,1,1-.6-.6A.6.6,0,0,1,12.309,13.623Zm0,8.432a.6.6,0,1,1-.6-.6A.6.6,0,0,1,12.309,22.056Zm0,5.635a.6.6,0,1,1-.6-.6A.6.6,0,0,1,12.309,27.691Zm0,2.811a.6.6,0,1,1-.6-.6A.6.6,0,0,1,12.309,30.5Zm0-5.626a.6.6,0,1,1-.6-.6A.6.6,0,0,1,12.309,24.875Zm0-8.446a.6.6,0,1,1-.6-.6A.6.6,0,0,1,12.309,16.43Zm0,2.815a.6.6,0,1,1-.6-.6A.6.6,0,0,1,12.309,19.245Zm0,14.075a.6.6,0,1,1-.6-.6A.6.6,0,0,1,12.309,33.32Zm37.752-18.6H27.135V26.179H50.061ZM47.2,20.141a.6.6,0,1,0-.311,1.106.6.6,0,0,0,.311-.089v1.8a.593.593,0,0,0-.887.358H44.645a.595.595,0,0,0-1.152,0H41.835a.6.6,0,0,0-1.153,0H39.02a.6.6,0,0,0-1.153,0H36.2a.6.6,0,0,0-1.153,0H33.393a.6.6,0,0,0-1.153,0H30.579A.6.6,0,0,0,30,22.867h0v-1.62h0a.6.6,0,1,0,0-1.2h0V18.435h0a.6.6,0,0,0,.6-.6.586.586,0,0,0-.06-.255h1.738a.578.578,0,0,0-.06.255.6.6,0,1,0,1.2,0,.578.578,0,0,0-.06-.255h1.735a.586.586,0,0,0-.059.255.6.6,0,1,0,1.2,0,.578.578,0,0,0-.06-.255H37.9a.586.586,0,0,0-.059.255.6.6,0,1,0,1.195,0,.586.586,0,0,0-.059-.255h1.739a.586.586,0,0,0-.06.255.6.6,0,0,0,1.2,0,.586.586,0,0,0-.059-.255h1.734a.6.6,0,1,0,1.076,0h1.738a.594.594,0,0,0,.538.853.6.6,0,0,0,.311-.089v1.795Zm0,8.9H50.06v2.866H47.2Zm-5.732,0h2.865v2.866H41.463ZM47.2,40.508H50.06v2.866H47.2Zm0-5.731H50.06v2.866H47.2ZM46.077,19.245a.6.6,0,1,1-.6-.6A.6.6,0,0,1,46.077,19.245ZM32.009,22.056a.6.6,0,1,1-.6-.6A.6.6,0,0,1,32.009,22.056Zm3.723,18.452H38.6v2.866H35.732Zm0-5.731H38.6v2.866H35.732ZM33.415,20.648a.6.6,0,1,1-.6-.6A.6.6,0,0,1,33.415,20.648Zm8.048,14.128h2.865v2.866H41.463Zm-5.731-5.731H38.6v2.866H35.732Zm5.731,11.463h2.865v2.866H41.463Zm0,5.732h2.865v2.866H41.463ZM32.009,19.245a.6.6,0,1,1-.6-.6A.6.6,0,0,1,32.009,19.245Zm11.256,2.811a.6.6,0,1,1-.6-.6A.6.6,0,0,1,43.265,22.056Zm-1.408-1.408a.6.6,0,1,1-.6-.6A.6.6,0,0,1,41.856,20.648Zm1.408-1.4a.6.6,0,1,1-.6-.6A.6.6,0,0,1,43.265,19.245Zm-2.815,0a.6.6,0,1,1-.6-.6A.6.6,0,0,1,40.449,19.245Zm5.628,2.811a.6.6,0,1,1-.6-.6A.6.6,0,0,1,46.077,22.056Zm-1.411-1.408a.6.6,0,1,1-.6-.6A.6.6,0,0,1,44.667,20.648Zm-5.626,0a.6.6,0,1,1-.6-.6A.6.6,0,0,1,39.041,20.648Zm-2.814,0a.6.6,0,1,1-.6-.6A.6.6,0,0,1,36.227,20.648Zm-1.4-1.4a.6.6,0,1,1-.6-.6A.6.6,0,0,1,34.824,19.245Zm2.813,2.811a.6.6,0,1,1-.6-.6A.6.6,0,0,1,37.637,22.056Zm2.813,0a.6.6,0,1,1-.6-.6A.6.6,0,0,1,40.449,22.056Zm-5.626,0a.6.6,0,1,1-.6-.6A.6.6,0,0,1,34.824,22.056Zm2.813-2.811a.6.6,0,1,1-.6-.6A.6.6,0,0,1,37.637,19.245ZM15.124,36.135a.6.6,0,1,1-.6-.6A.6.6,0,0,1,15.124,36.135Zm1.408-23.919a.6.6,0,1,1-.6-.6A.6.6,0,0,1,16.531,12.216Zm0,2.807a.6.6,0,1,1-.6-.6A.6.6,0,0,1,16.531,15.023Zm1.408,32.365a.6.6,0,1,1-.6-.6A.6.6,0,0,1,17.939,47.388ZM16.531,20.648a.6.6,0,1,1-.6-.6A.6.6,0,0,1,16.531,20.648Zm1.408,29.546a.6.6,0,1,1-.6-.6A.6.6,0,0,1,17.939,50.194Zm0,2.815a.6.6,0,1,1-.6-.6A.6.6,0,0,1,17.939,53.009ZM16.531,17.837a.6.6,0,1,1-.6-.6A.6.6,0,0,1,16.531,17.837Zm0,5.626a.6.6,0,1,1-.6-.6A.6.6,0,0,1,16.531,23.464ZM13.713,34.727a.6.6,0,1,1-.6-.6A.6.6,0,0,1,13.713,34.727Zm2.818-2.817h0a.6.6,0,0,1-1.2,0h0a.6.6,0,0,1,1.2,0Zm0,8.444a.6.6,0,1,1-.6-.6A.6.6,0,0,1,16.531,40.354Zm0-11.26h0a.6.6,0,1,1-1.2,0h0a.6.6,0,0,1,1.2,0Zm0-2.811a.6.6,0,1,1-.6-.6A.6.6,0,0,1,16.531,26.283Zm0,8.444a.6.6,0,1,1-.6-.6A.6.6,0,0,1,16.531,34.727Zm1.408-9.851a.6.6,0,1,1-.6-.6A.6.6,0,0,1,17.939,24.875Zm0-2.819a.6.6,0,1,1-.6-.6A.6.6,0,0,1,17.939,22.056Zm0-5.626a.6.6,0,1,1-.6-.6A.6.6,0,0,1,17.939,16.43Zm0,2.815a.6.6,0,1,1-.6-.6A.6.6,0,0,1,17.939,19.245Zm0-8.433a.6.6,0,1,1-.6-.6A.6.6,0,0,1,17.939,10.812Zm0,2.812a.6.6,0,1,1-.6-.6A.6.6,0,0,1,17.939,13.623Zm0,28.138a.6.6,0,1,1-.6-.6A.6.6,0,0,1,17.939,41.761Zm0-14.071a.6.6,0,1,1-.6-.6A.6.6,0,0,1,17.939,27.691Zm0,8.444a.6.6,0,1,1-.6-.6A.6.6,0,0,1,17.939,36.135Zm0,8.441a.6.6,0,1,1-.6-.6A.6.6,0,0,1,17.939,44.576Zm0-5.63a.6.6,0,1,1-.6-.6A.6.6,0,0,1,17.939,38.946Zm0-8.444a.6.6,0,1,1-.6-.6A.6.6,0,0,1,17.939,30.5Zm0,2.818a.6.6,0,1,1-.6-.6A.6.6,0,0,1,17.939,33.32Zm-1.408,4.219a.6.6,0,1,1-.6-.6A.6.6,0,0,1,16.531,37.539Zm-1.408,4.223a.6.6,0,1,1-.6-.6A.6.6,0,0,1,15.124,41.761Zm0,8.433a.6.6,0,1,1-.6-.6A.6.6,0,0,1,15.124,50.194ZM13.713,12.216a.6.6,0,1,1-.6-.6A.6.6,0,0,1,13.713,12.216Zm0,2.807a.6.6,0,1,1-.6-.6A.6.6,0,0,1,13.713,15.023Zm1.411,32.365a.6.6,0,1,1-.6-.6A.6.6,0,0,1,15.124,47.388Zm0-2.812a.6.6,0,1,1-.6-.6A.6.6,0,0,1,15.124,44.576Zm1.408-1.407a.6.6,0,1,1-.6-.6A.6.6,0,0,1,16.531,43.169ZM13.713,26.283a.6.6,0,1,1-.6-.6A.6.6,0,0,1,13.713,26.283Zm0-8.446a.6.6,0,1,1-.6-.6A.6.6,0,0,1,13.713,17.837Zm0,14.073h0a.6.6,0,0,1-1.2,0h0a.6.6,0,0,1,1.2,0Zm0-2.815a.6.6,0,1,1-.6-.6A.6.6,0,0,1,13.713,29.095Zm0-5.631a.6.6,0,1,1-.6-.6A.6.6,0,0,1,13.713,23.464Zm0-2.815a.6.6,0,1,1-.6-.6A.6.6,0,0,1,13.713,20.648Zm1.411,32.361a.6.6,0,1,1-.6-.6A.6.6,0,0,1,15.124,53.009Zm0-42.2a.6.6,0,1,1-.6-.6A.6.6,0,0,1,15.124,10.812Zm0,2.812a.6.6,0,1,1-.6-.6A.6.6,0,0,1,15.124,13.623ZM16.531,51.6a.6.6,0,1,1-.6-.6A.6.6,0,0,1,16.531,51.6Zm0-2.815a.6.6,0,1,1-.6-.6A.6.6,0,0,1,16.531,48.787Zm0-2.807a.6.6,0,1,1-.6-.6A.6.6,0,0,1,16.531,45.979ZM15.124,16.43a.6.6,0,1,1-.6-.6A.6.6,0,0,1,15.124,16.43Zm0,14.072a.6.6,0,1,1-.6-.6A.6.6,0,0,1,15.124,30.5Zm0,8.444a.6.6,0,1,1-.6-.6A.6.6,0,0,1,15.124,38.946Zm0-19.7a.6.6,0,1,1-.6-.6A.6.6,0,0,1,15.124,19.245Zm0,14.075a.6.6,0,1,1-.6-.6A.6.6,0,0,1,15.124,33.32Zm0-5.629a.6.6,0,1,1-.6-.6A.6.6,0,0,1,15.124,27.691Zm0-5.635a.6.6,0,1,1-.6-.6A.6.6,0,0,1,15.124,22.056Zm0,2.819a.6.6,0,1,1-.6-.6A.6.6,0,0,1,15.124,24.875Z" transform="translate(317.001 552.223)" fill="#33a495"/>
    <g id="그룹_72" data-name="그룹 72">
      <g id="그룹_73" data-name="그룹 73">
        <text id="TEL" transform="translate(332 636.656)" fill="#33a495" font-size="17.5" font-family="SegoeUI-Bold, Segoe UI" font-weight="700"><tspan x="0" y="0">TEL</tspan></text>
      </g>
    </g>
  </g>
</svg>
